<svg xmlns="http://www.w3.org/2000/svg" viewBox="2495.801 901.024 24.173 24.171">
  <defs>
    <style>
      .cls-1 {
        fill: #d97d00;
      }
    </style>
  </defs>
  <g id="np_edit_1167403_000000" transform="translate(2495.801 901.024)">
    <path id="Path_17" data-name="Path 17" class="cls-1" d="M31.465,26.627V24H23.713A1.291,1.291,0,0,0,22.4,25.314V46.158a1.291,1.291,0,0,0,1.314,1.314H44.557a1.291,1.291,0,0,0,1.314-1.314V38.406H43.243v6.481H25.026V26.628Z" transform="translate(-22.399 -23.3)"/>
    <path id="Path_18" data-name="Path 18" class="cls-1" d="M51.571,22.8a1.27,1.27,0,0,0-1.839,0L39.223,33.3a1.546,1.546,0,0,0-.351.57l-1.226,4.379a1.324,1.324,0,0,0,.92,1.62,1.86,1.86,0,0,0,.7,0l4.379-1.226a.974.974,0,0,0,.57-.351L54.726,27.787a1.27,1.27,0,0,0,0-1.839ZM40.8,36.721Zm2.54-1.226L42.025,34.18l8.626-8.626,1.314,1.314Z" transform="translate(-30.947 -22.402)"/>
  </g>
</svg>
