<svg xmlns="http://www.w3.org/2000/svg" viewBox="2102.629 1112.768 22.425 28.372">
  <defs>
    <style>
      .cls-1 {
        fill: #d97d00;
      }
    </style>
  </defs>
  <g id="Group_13" data-name="Group 13" transform="translate(1909 -97)">
    <path id="np_delete_997234_000000" class="cls-1" d="M11.514,8.015V25.262a3.038,3.038,0,0,0,3.036,3.11H28.792a3.206,3.206,0,0,0,.755-.093,3.02,3.02,0,0,0,2.324-3.028V8H11.514Zm5.073,17.321a1.028,1.028,0,0,1-1.027-1.1V12.07h0a1.03,1.03,0,0,1,2.02-.3,1.32,1.32,0,0,1,.042.378V24.256h0a1.024,1.024,0,0,1-1.035,1.082Zm5.107,0a1.028,1.028,0,0,1-1.027-1.1V12.07h0a1.03,1.03,0,0,1,2.02-.3,1.312,1.312,0,0,1,.042.377V24.252a1.024,1.024,0,0,1-1.035,1.084Zm5.107,0a1.028,1.028,0,0,1-1.024-1.1V12.065h0a1.03,1.03,0,0,1,2.02-.284,1.4,1.4,0,0,1,.042.378V24.265h0a1.025,1.025,0,0,1-1.061,1.073ZM29.436,2.27H26.108V2.244A2.234,2.234,0,0,0,23.876,0H19.511a2.235,2.235,0,0,0-2.235,2.235v.025H13.951a3.47,3.47,0,0,0-3.47,3.47,3.414,3.414,0,0,0,.08.735H32.826a3.415,3.415,0,0,0,.08-.735,3.47,3.47,0,0,0-3.47-3.461Z" transform="translate(183.148 1209.768)"/>
  </g>
</svg>
