<?xml version="1.0" encoding="utf-8"?>
<!-- Generator: Adobe Illustrator 21.1.0, SVG Export Plug-In . SVG Version: 6.00 Build 0)  -->
<svg version="1.1" id="Layer_1" xmlns="http://www.w3.org/2000/svg" xmlns:xlink="http://www.w3.org/1999/xlink" x="0px" y="0px"
	 viewBox="0 0 40 40" style="enable-background:new 0 0 40 40;" xml:space="preserve">
<style type="text/css">
	.st0{fill:#EDAC54;}
</style>
<g id="Group_9" transform="translate(18 23.05)">
	<path id="Path_11" class="st0" d="M11.1,9.9c1,1,1,2.7,0,3.7s-2.7,1-3.7,0L-7-0.9c-1.2-1.1-1.2-3,0-4.2c0,0,0,0,0,0L7.5-19.7
		c1-1,2.6-1,3.7,0c0,0,0,0,0,0c1,1,1,2.6,0,3.7c0,0,0,0,0,0L-1.8-3.1L11.1,9.9z"/>
</g>
</svg>
