<?xml version="1.0" encoding="utf-8"?>
<!-- Generator: Adobe Illustrator 21.1.0, SVG Export Plug-In . SVG Version: 6.00 Build 0)  -->
<svg version="1.1" id="Layer_1" xmlns="http://www.w3.org/2000/svg" xmlns:xlink="http://www.w3.org/1999/xlink" x="0px" y="0px"
	 viewBox="0 0 40 40" style="enable-background:new 0 0 40 40;" xml:space="preserve">
<style type="text/css">
	.st0{fill:#EDAC54;}
</style>
<g>
	<path id="Path_21" class="st0" d="M37.8,18.7c0-1.5-1.2-2.8-2.7-2.8c0,0,0,0-0.1,0h-8.4c-0.4,0-2-0.7-0.8-2.6
		c0.8-1.4,0.8-6.9,0.8-6.9c0-1.5-1.2-2.8-2.8-2.8c-1.5,0-2.8,1.2-2.8,2.8c0,8.1-7.8,10.6-7.8,10.6v14.5c3.6,1.2,4.5,3.3,8.9,3.3h8.4
		c1.5,0,2.8-1.2,2.8-2.8c0-0.6-0.2-1.2-0.6-1.7c1.5,0,2.8-1.2,2.8-2.7c0,0,0,0,0-0.1c0-0.7-0.2-1.4-0.7-1.9c1.1-0.4,1.8-1.4,1.8-2.6
		c0-0.7-0.2-1.4-0.7-1.9C37.1,20.9,37.8,19.9,37.8,18.7L37.8,18.7z"/>
	<path id="Path_22" class="st0" d="M7.7,14.8H2.2v18.9h5.6c1.8,0,3.3-1.5,3.3-3.3V18.2c0-1.8-1.4-3.3-3.2-3.3
		C7.8,14.8,7.8,14.8,7.7,14.8z"/>
</g>
</svg>
