<svg xmlns="http://www.w3.org/2000/svg" viewBox="2088 418 24.5 28.996">
  <defs>
    <style>
      .cls-1 {
        fill: #d97d00;
        fill-rule: evenodd;
      }
    </style>
  </defs>
  <path id="np_calendar_941987_000000" class="cls-1" d="M12.1,0a.757.757,0,0,0-.755.755V4.65A.751.751,0,0,0,12.1,5.4h.14a.75.75,0,0,0,.748-.748V.755A.754.754,0,0,0,12.238,0ZM27.861,0a.757.757,0,0,0-.755.755V4.65a.751.751,0,0,0,.755.748h.133a.754.754,0,0,0,.755-.748V.755A.76.76,0,0,0,27.993,0ZM9.7,2.411a1.956,1.956,0,0,0-1.95,1.957v22.67A1.956,1.956,0,0,0,9.7,29H30.285a1.966,1.966,0,0,0,1.964-1.957V4.369a1.966,1.966,0,0,0-1.964-1.957H29.37v2.74a1.054,1.054,0,0,1-1.049,1.056h-.789a1.06,1.06,0,0,1-1.056-1.056V2.411H13.614v2.74a1.054,1.054,0,0,1-1.049,1.056h-.8a1.054,1.054,0,0,1-1.049-1.056V2.411H9.7ZM9.685,10.5H30.306a.3.3,0,0,1,.3.3V25.745a.3.3,0,0,1-.3.3H9.685a.3.3,0,0,1-.3-.3V10.8a.3.3,0,0,1,.3-.3Zm6.529,2.286v2.8h2.8v-2.8Zm4.873,0v2.8h2.789v-2.8Zm4.865,0v2.8h2.8v-2.8Zm-14.6,4.194v2.8h2.8v-2.8Zm4.865,0v2.8h2.8v-2.8Zm4.873,0v2.8h2.79v-2.8Zm4.865,0v2.8h2.8v-2.8Zm-14.6,4.194v2.8h2.8v-2.8Zm4.865,0v2.8h2.8v-2.8Zm4.873,0v2.8h2.79v-2.8Zm-11.7,5.732H30.605v.174H9.383Zm0,1.049H30.605v.174H9.383Z" transform="translate(2080.25 418)"/>
</svg>
