<?xml version="1.0" encoding="utf-8"?>
<!-- Generator: Adobe Illustrator 21.1.0, SVG Export Plug-In . SVG Version: 6.00 Build 0)  -->
<svg version="1.1" id="Layer_1" xmlns="http://www.w3.org/2000/svg" xmlns:xlink="http://www.w3.org/1999/xlink" x="0px" y="0px"
	 viewBox="0 0 49.4 24" style="enable-background:new 0 0 49.4 24;" xml:space="preserve">
<style type="text/css">
	.st0{fill:#D97D00;}
</style>
<g id="Symbol_5_1" transform="translate(890)">
	<g id="Group_4" transform="translate(224.944 104.477)">
		<path id="Path_5" class="st0" d="M-1114.8-100.6l6.7,8.8v6.5c0,0.2,0.1,0.4,0.2,0.5l3.4,2.1c0.1,0.1,0.2,0.1,0.3,0.1
			c0.1,0,0.2,0,0.3-0.1c0.2-0.1,0.3-0.3,0.3-0.5v-8.6l6.7-8.8l0,0c0.2-0.3,0.2-0.6,0-0.9c-0.2-0.3-0.4-0.5-0.8-0.5h-16.5
			c-0.3,0-0.6,0.2-0.8,0.5C-1115-101.2-1115-100.9-1114.8-100.6L-1114.8-100.6z M-1098.1-100.9l-6.5,8.6c-0.1,0.1-0.1,0.2-0.1,0.3
			v7.8l-2.3-1.4v-6.3c0-0.1,0-0.2-0.1-0.3l-6.5-8.6H-1098.1z"/>
	</g>
	<g id="Group_6" transform="translate(247.53 106.012)">
		<path id="Path_7" class="st0" d="M-1114.9-102C-1114.9-102-1114.9-102-1114.9-102l0,2.8c0,0,0,0,0,0h24.4c0,0,0,0,0,0v-2.8
			c0,0,0,0,0,0H-1114.9z M-1114.9-95.2C-1114.9-95.2-1114.9-95.2-1114.9-95.2l0,2.8c0,0,0,0,0,0h16.3c0,0,0,0,0,0v-2.8c0,0,0,0,0,0
			H-1114.9z M-1114.8-88.6C-1114.8-88.6-1114.8-88.6-1114.8-88.6l0,2.8c0,0,0,0,0,0h8.1c0,0,0,0,0,0v-2.8c0,0,0,0,0,0L-1114.8-88.6z
			"/>
	</g>
</g>
</svg>
