<?xml version="1.0" encoding="utf-8"?>
<!-- Generator: Adobe Illustrator 21.1.0, SVG Export Plug-In . SVG Version: 6.00 Build 0)  -->
<svg version="1.1" id="Layer_1" xmlns="http://www.w3.org/2000/svg" xmlns:xlink="http://www.w3.org/1999/xlink" x="0px" y="0px"
	 viewBox="0 0 40 40" style="enable-background:new 0 0 40 40;" xml:space="preserve">
<style type="text/css">
	.st0{fill:#EDAC54;}
</style>
<g id="Group_5" transform="translate(318 -930.762)">
	<path id="Path_3" class="st0" d="M-289,944.3c-0.2,0-0.2,0-0.4,0.1l-8.2,4.3c-0.3,0.2-0.5,0.4-0.5,0.7v3.4c0,0.5,0.4,0.8,0.8,0.8
		c0.2,0,0.2,0,0.4-0.1l8.2-4.2c0.2-0.2,0.5-0.4,0.5-0.7l0.1-3.5C-288.1,944.6-288.4,944.3-289,944.3
		C-288.9,944.3-288.9,944.3-289,944.3L-289,944.3z M-289.7,946.3l-0.1,1.8l-6.6,3.4v-1.7L-289.7,946.3z"/>
	<path id="Path_4" class="st0" d="M-295.6,933.3c-0.2,0-0.2,0-0.4,0.1l-13.2,6.7c-0.3,0.2-0.5,0.4-0.5,0.8l0,0v22.8
		c0,0.3,0.2,0.6,0.5,0.7c0.8,0.4,1.7,0.5,2.5,0.4v0.7c0,0.3,0.2,0.5,0.5,0.7c0.8,0.4,1.7,0.5,2.6,0.4v0.2c0,0.3,0.2,0.5,0.5,0.7
		c1.1,0.6,2.5,0.6,3.7,0.1h0.1l13.8-7.6c0.2-0.2,0.4-0.4,0.4-0.7v-19.5l0,0c0-0.5-0.4-0.8-0.8-0.8c-1-0.1-1.9-0.7-2.3-1.6v-0.1l0,0
		c-0.2-0.2-0.4-0.4-0.7-0.4c-1,0-1.9-0.5-2.4-1.3c-0.1-0.3-0.4-0.5-0.6-0.5c-1.5-0.2-2.4-0.6-2.7-1.2
		C-295,933.5-295.3,933.3-295.6,933.3L-295.6,933.3z M-295.8,935c0.4,0.4,0.8,0.8,1.4,0.9L-306,942h-0.1c-0.7-0.1-1.3-0.5-1.8-1
		L-295.8,935z M-292.5,936.8c0.4,0.5,0.8,0.8,1.4,1l-11.6,6.3c-0.7-0.1-1.3-0.5-1.8-1L-292.5,936.8z M-289.3,938.6
		c0.4,0.5,0.8,0.8,1.4,1.1l-11.8,6.3c-0.7-0.1-1.4-0.4-1.9-0.8L-289.3,938.6L-289.3,938.6z M-286.8,940.9v17.7l-12.3,6.7v-17.9
		L-286.8,940.9z M-308.1,942.9c0.5,0.3,0.9,0.5,1.5,0.7v19.5c-0.5,0.2-1,0.2-1.5,0V942.9z M-305.1,944.7c0.5,0.4,0.9,0.6,1.5,0.8
		v19.5c-0.5,0.2-1,0.2-1.5,0V944.7z M-302.1,946.8c0.5,0.3,0.9,0.5,1.5,0.6v18.6c-0.5,0.2-1,0.2-1.5,0V946.8z"/>
</g>
</svg>
